<svg xmlns="http://www.w3.org/2000/svg" viewBox="0 0 342.37 388.83"><defs><style>.cls-1{fill:#78cbee;}.cls-1,.cls-2{stroke:#000;stroke-linecap:round;stroke-linejoin:round;stroke-width:11px;}.cls-2{fill:#f7e5de;}.cls-3{fill:#1a171b;}.cls-4{fill:#e6511e;}</style></defs><title>MaestroServer</title><g id="Back"><rect class="cls-1" x="33.55" y="5.5" width="275.27" height="377.83"/></g><g id="LowerRack"><rect class="cls-2" x="5.5" y="267.38" width="331.37" height="87.32"/></g><g id="LowerFan"><g id="Lager_25" data-name="Lager 25"><circle class="cls-3" cx="30.94" cy="296.86" r="6.01"/></g><g id="Lager_24" data-name="Lager 24"><circle class="cls-3" cx="51.28" cy="296.86" r="6.01"/></g><g id="Lager_23" data-name="Lager 23"><circle class="cls-3" cx="71.63" cy="296.86" r="6.01"/></g><g id="Lager_22" data-name="Lager 22"><circle class="cls-3" cx="91.97" cy="296.86" r="6.01"/></g><g id="Lager_21" data-name="Lager 21"><circle class="cls-3" cx="112.31" cy="296.86" r="6.01"/></g></g><g id="LowerFan2"><g id="Lager_19" data-name="Lager 19"><circle class="cls-3" cx="30.94" cy="317.13" r="6.01"/></g><g id="Lager_18" data-name="Lager 18"><circle class="cls-3" cx="51.28" cy="317.13" r="6.01"/></g><g id="Lager_17" data-name="Lager 17"><circle class="cls-3" cx="71.63" cy="317.13" r="6.01"/></g><g id="Lager_16" data-name="Lager 16"><circle class="cls-3" cx="91.97" cy="317.13" r="6.01"/></g><g id="Lager_15" data-name="Lager 15"><circle class="cls-3" cx="112.31" cy="317.13" r="6.01"/></g></g><g id="LowerLights"><g id="Lager_5" data-name="Lager 5"><circle class="cls-4" cx="234.76" cy="307.11" r="10.14"/></g><g id="Lager_4" data-name="Lager 4"><circle class="cls-4" cx="265.54" cy="307.05" r="10.14"/></g><g id="Lager_3" data-name="Lager 3"><circle class="cls-4" cx="296.33" cy="307" r="10.14"/></g></g><g id="MiddleRack"><rect class="cls-2" x="5.5" y="150.75" width="331.37" height="87.32"/></g><g id="MiddleFan"><g id="Lager_37" data-name="Lager 37"><circle class="cls-3" cx="30.94" cy="180.1" r="6.01"/></g><g id="Lager_36" data-name="Lager 36"><circle class="cls-3" cx="51.28" cy="180.1" r="6.01"/></g><g id="Lager_35" data-name="Lager 35"><circle class="cls-3" cx="71.63" cy="180.1" r="6.01"/></g><g id="Lager_34" data-name="Lager 34"><circle class="cls-3" cx="91.97" cy="180.1" r="6.01"/></g><g id="Lager_33" data-name="Lager 33"><circle class="cls-3" cx="112.31" cy="180.1" r="6.01"/></g></g><g id="MiddleFan2"><g id="Lager_31" data-name="Lager 31"><circle class="cls-3" cx="30.94" cy="200.37" r="6.01"/></g><g id="Lager_30" data-name="Lager 30"><circle class="cls-3" cx="51.28" cy="200.37" r="6.01"/></g><g id="Lager_29" data-name="Lager 29"><circle class="cls-3" cx="71.63" cy="200.37" r="6.01"/></g><g id="Lager_28" data-name="Lager 28"><circle class="cls-3" cx="91.97" cy="200.37" r="6.01"/></g><g id="Lager_27" data-name="Lager 27"><circle class="cls-3" cx="112.31" cy="200.37" r="6.01"/></g></g><g id="MiddleLigths"><g id="Lager_9" data-name="Lager 9"><circle class="cls-4" cx="240.31" cy="190.34" r="10.14"/></g><g id="Lager_8" data-name="Lager 8"><circle class="cls-4" cx="271.09" cy="190.29" r="10.14"/></g><g id="Lager_7" data-name="Lager 7"><circle class="cls-4" cx="301.88" cy="190.24" r="10.14"/></g></g><g id="TopRack"><rect class="cls-2" x="5.5" y="34.13" width="331.37" height="87.32"/></g><g id="TopLights"><g id="Lager_13" data-name="Lager 13"><circle class="cls-4" cx="240.31" cy="73.58" r="10.14"/></g><g id="Lager_12" data-name="Lager 12"><circle class="cls-4" cx="271.09" cy="73.53" r="10.14"/></g><g id="Lager_11" data-name="Lager 11"><circle class="cls-4" cx="301.88" cy="73.48" r="10.14"/></g></g><g id="TopFans"><g id="Lager_49" data-name="Lager 49"><circle class="cls-3" cx="30.94" cy="63.34" r="6.01"/></g><g id="Lager_48" data-name="Lager 48"><circle class="cls-3" cx="51.28" cy="63.34" r="6.01"/></g><g id="Lager_47" data-name="Lager 47"><circle class="cls-3" cx="71.63" cy="63.34" r="6.01"/></g><g id="Lager_46" data-name="Lager 46"><circle class="cls-3" cx="91.97" cy="63.34" r="6.01"/></g><g id="Lager_45" data-name="Lager 45"><circle class="cls-3" cx="112.31" cy="63.34" r="6.01"/></g></g><g id="TopFans2w"><g id="Lager_43" data-name="Lager 43"><circle class="cls-3" cx="30.94" cy="83.61" r="6.01"/></g><g id="Lager_42" data-name="Lager 42"><circle class="cls-3" cx="51.28" cy="83.61" r="6.01"/></g><g id="Lager_41" data-name="Lager 41"><circle class="cls-3" cx="71.63" cy="83.61" r="6.01"/></g><g id="Lager_40" data-name="Lager 40"><circle class="cls-3" cx="91.97" cy="83.61" r="6.01"/></g><g id="Lager_39" data-name="Lager 39"><circle class="cls-3" cx="112.31" cy="83.61" r="6.01"/></g></g></svg>