<svg id="Lager_1" data-name="Lager 1" xmlns="http://www.w3.org/2000/svg" viewBox="0 0 117.76 133.71"><defs><style>.cls-1{fill:#78cbee;}.cls-1,.cls-2,.cls-3{stroke:#1a171b;stroke-linejoin:round;}.cls-1,.cls-2{stroke-width:4px;}.cls-2{fill:#f7e5de;}.cls-3{fill:#1a171b;}.cls-4{fill:#e6511e;}</style></defs><title>MaestroICON</title><rect class="cls-1" x="11.63" y="2" width="94.5" height="129.71"/><rect class="cls-2" x="2" y="11.83" width="113.76" height="29.98"/><rect class="cls-2" x="2" y="51.87" width="113.76" height="29.98"/><rect class="cls-2" x="2" y="91.9" width="113.76" height="29.98"/><circle class="cls-3" cx="10.73" cy="21.86" r="2.06"/><circle class="cls-3" cx="17.72" cy="21.86" r="2.06"/><circle class="cls-3" cx="24.7" cy="21.86" r="2.06"/><circle class="cls-3" cx="31.69" cy="21.86" r="2.06"/><circle class="cls-3" cx="38.67" cy="21.86" r="2.06"/><circle class="cls-3" cx="10.73" cy="28.82" r="2.06"/><circle class="cls-3" cx="17.72" cy="28.82" r="2.06"/><circle class="cls-3" cx="24.7" cy="28.82" r="2.06"/><circle class="cls-3" cx="31.69" cy="28.82" r="2.06"/><circle class="cls-3" cx="38.67" cy="28.82" r="2.06"/><circle class="cls-3" cx="10.73" cy="61.94" r="2.06"/><circle class="cls-3" cx="17.72" cy="61.94" r="2.06"/><circle class="cls-3" cx="24.7" cy="61.94" r="2.06"/><circle class="cls-3" cx="31.69" cy="61.94" r="2.06"/><circle class="cls-3" cx="38.67" cy="61.94" r="2.06"/><circle class="cls-3" cx="10.73" cy="68.9" r="2.06"/><circle class="cls-3" cx="17.72" cy="68.9" r="2.06"/><circle class="cls-3" cx="24.7" cy="68.9" r="2.06"/><circle class="cls-3" cx="31.69" cy="68.9" r="2.06"/><circle class="cls-3" cx="38.67" cy="68.9" r="2.06"/><circle class="cls-3" cx="10.73" cy="102.03" r="2.06"/><circle class="cls-3" cx="17.72" cy="102.03" r="2.06"/><circle class="cls-3" cx="24.7" cy="102.03" r="2.06"/><circle class="cls-3" cx="31.69" cy="102.03" r="2.06"/><circle class="cls-3" cx="38.67" cy="102.03" r="2.06"/><circle class="cls-3" cx="10.73" cy="108.98" r="2.06"/><circle class="cls-3" cx="17.72" cy="108.98" r="2.06"/><circle class="cls-3" cx="24.7" cy="108.98" r="2.06"/><circle class="cls-3" cx="31.69" cy="108.98" r="2.06"/><circle class="cls-3" cx="38.67" cy="108.98" r="2.06"/><circle class="cls-4" cx="82.61" cy="25.37" r="3.48"/><circle class="cls-4" cx="93.18" cy="25.35" r="3.48"/><circle class="cls-4" cx="103.75" cy="25.34" r="3.48"/><circle class="cls-4" cx="82.61" cy="65.46" r="3.48"/><circle class="cls-4" cx="93.18" cy="65.44" r="3.48"/><circle class="cls-4" cx="103.75" cy="65.42" r="3.48"/><circle class="cls-4" cx="80.71" cy="105.54" r="3.48"/><circle class="cls-4" cx="91.27" cy="105.52" r="3.48"/><circle class="cls-4" cx="101.84" cy="105.5" r="3.48"/></svg>
